<!DOCTYPE svg PUBLIC "-//W3C//DTD SVG 1.1//EN" "http://www.w3.org/Graphics/SVG/1.1/DTD/svg11.dtd">
<!-- Uploaded to: SVG Repo, www.svgrepo.com, Transformed by: SVG Repo Mixer Tools -->
<svg fill="#179711" version="1.1" id="Capa_1" xmlns="http://www.w3.org/2000/svg" xmlns:xlink="http://www.w3.org/1999/xlink" width="800px" height="800px" viewBox="0 0 183.899 183.899" xml:space="preserve" stroke="#179711">
<g id="SVGRepo_bgCarrier" stroke-width="0"/>
<g id="SVGRepo_tracerCarrier" stroke-linecap="round" stroke-linejoin="round"/>
<g id="SVGRepo_iconCarrier"> <g> <g> <path d="M171.178,79.022c-3.203-11.478-12.349-19.829-23.248-19.829c-0.128,0-0.244,0.039-0.365,0.045 c-1.754-21.811-17.33-38.946-36.499-38.946c-10.784,0-20.398,5.511-27.146,14.124c-4.253-4.104-9.639-6.673-15.582-6.673 c-13.341,0-24.156,12.428-24.509,27.879c-2.338-1.035-4.853-1.672-7.502-1.672c-11.755,0-21.275,11.104-21.275,24.798 C6.734,78.749,0,86.598,0,96.285c0,9.682,6.734,17.53,15.052,17.53c0.316,0,11.99,0,28.726,0v-13.109 c0-6.327,5.151-11.469,11.487-11.469h4.238V69.271c0-6.33,5.152-11.478,11.487-11.478c6.327,0,11.472,5.148,11.472,11.478v19.967 h18.971V69.271c0-6.33,5.151-11.478,11.472-11.478c6.339,0,11.49,5.148,11.49,11.478v19.967h4.238 c6.339,0,11.49,5.142,11.49,11.469v13.109c16.781,0,28.467,0,28.723,0c8.317,0,15.053-7.849,15.053-17.53 C183.899,87.529,178.375,80.332,171.178,79.022z"/> <path d="M128.633,95.481H118.16V69.283c0-2.898-2.351-5.243-5.255-5.243c-2.886,0-5.236,2.338-5.236,5.243v26.198H76.227V69.283 c0-2.898-2.344-5.243-5.237-5.243c-2.901,0-5.252,2.338-5.252,5.243v26.198H55.265c-2.89,0-5.252,2.362-5.252,5.236v26.208 c0,5.761,4.719,10.485,10.488,10.485h20.956v15.717c0,5.79,4.695,10.479,10.488,10.479c5.797,0,10.486-4.688,10.486-10.479 v-15.717h20.958c5.767,0,10.486-4.725,10.486-10.485v-26.208C133.888,97.844,131.526,95.481,128.633,95.481z"/> </g> </g> </g>
</svg>